<svg width="77" height="48" viewBox="0 0 77 48" fill="none" xmlns="http://www.w3.org/2000/svg">
<path d="M27.1059 23.7511L26.5773 23.2215H18.5404L18.0706 23.6922L16.1687 25.6021L4.51765 37.274V26.729L3.39275 25.6021L1.02099 23.2215L0 22.1987V47.8008L0.198776 48L4.51765 43.6734L6.58673 41.6006L6.86231 41.3245L9.03529 39.1476L9.78071 38.4009L11.38 36.7988L12.9747 35.2012L13.5529 34.6219L15.8976 32.273L16.1687 32.0015L18.0706 30.0961L19.3626 28.8018L20.4152 27.7473H24.7025L25.7551 28.8018L27.1059 30.155V42.9538L28.9491 44.8003L29.9972 45.8502L31.6235 47.4795V28.2813L28.9491 25.6021L27.1059 23.7511Z" fill="white"/>
<path d="M47.6092 18.6958L45.1742 16.2565L44.9167 15.9985L41.7227 12.7988L40.6565 11.7307V7.46747L41.7227 6.3994L44.9618 9.64435L45.1742 9.85706L48.1106 12.7988L49.4795 14.1701L49.6918 14.3828L51.3091 15.9985L53.1343 14.1701L54.2095 13.093V9.64435H51.3543L51.3091 9.59909L49.6918 7.98341L48.1106 6.3994L46.8321 5.11861L45.1742 3.45767L44.9167 3.1997L41.7227 0L38.5287 3.1997L36.1389 0.805582L35.9265 0.592872L35.3347 0L25.7076 9.64435H22.5859V12.8259L23.9277 14.1701L25.7528 15.9985L35.3347 6.3994L36.1389 7.20498V11.9932L35.3347 12.7988L33.9659 14.1701L32.1408 15.9985L31.6212 16.519L29.4482 18.6958L28.9468 19.1982L31.6212 21.8774L32.1408 22.3979L35.3347 19.1982L35.8362 18.6958L36.1389 18.3926V45.6059L36.3828 45.8503L38.5287 48L40.6565 45.8684V18.1301L41.7227 19.1982L44.9167 22.3979L48.1106 19.1982L47.6092 18.6958Z" fill="white"/>
<path d="M76.0364 23.2218L73.6647 25.6023L72.2778 26.9917V37.0117L72.0654 36.799L70.4707 35.2014L67.7601 32.4859L67.5478 32.2732L64.0827 28.802L63.2425 27.9602L63.0301 27.7475L60.8888 25.6023L58.7248 23.4299L58.517 23.2218H50.4846L45.1719 28.544V41.3247H45.1899L45.1719 41.3428V47.7422L47.0603 45.8505L48.1083 44.8005L49.6895 43.2165V30.4177L51.3068 28.802L52.3595 27.7475H56.6422L57.6948 28.802L58.7248 29.8339L60.8888 32.0017L61.1598 32.2732L63.2425 34.3596L64.0827 35.2014L67.2767 38.4011L67.7601 38.8853L70.1951 41.3247L70.4707 41.6008L72.2778 43.4111L73.6647 44.8005L74.7128 45.8505L76.7954 47.9368V22.4614L76.0364 23.2218Z" fill="white"/>
</svg>
